Coordinates
version=1
nRows=12
nColumns=28
inDegrees=yes

Units are S.I. units (second, meters, Newtons, ...)
Angles are in degrees.

endheader
time	pelvis_tilt	pelvis_list	pelvis_rotation	pelvis_tx	pelvis_ty	pelvis_tz	hip_flexion_r	hip_adduction_r	hip_rotation_r	knee_angle_r	ankle_angle_r	subtalar_angle_r	mtp_angle_r	hip_flexion_l	hip_adduction_l	hip_rotation_l	knee_angle_l	socket_flexion	socket_adduction	socket_rotation	socket_tx	socket_ty	socket_tz	foot_flex	lumbar_extension	lumbar_bending	lumbar_rotation
      0.00000000	      3.50685498	     -8.03969223	     -4.59459996	     -0.91931775	      0.99162198	      0.30999742	    -29.39244657	     10.03693911	      1.50671797	     -1.34570564	      7.89378949	      0.00907538	      4.55190631	     25.42464485	     -9.00550238	      9.10297359	     -3.38042241	     -0.35664351	      0.67414647	      1.77083652	      0.00000000	     -0.02166613	      0.00000000	     -1.19020855	    -16.54746264	      6.34888868	     10.54190610
      0.00416667	      3.43170201	     -8.06457555	     -4.57608454	     -0.91359191	      0.99081441	      0.30968177	    -29.49603192	     10.04019496	      1.55533502	     -1.58887787	      7.80418153	      0.01928899	      4.55125446	     25.23829946	     -8.94420426	      9.14838270	     -3.38749940	     -0.37573307	      0.62300061	      1.81802351	      0.00000000	     -0.02211809	      0.00000000	     -1.31318911	    -16.39964838	      6.36153549	     10.53352347
      0.00833333	      3.38590789	     -8.16003044	     -4.71733749	     -0.90789517	      0.99020009	      0.30943250	    -29.40372886	     10.01263778	      1.40050817	     -2.28445545	      7.45024709	      0.01626757	      4.60449232	     24.88969485	     -9.03287704	      9.00933496	     -3.11415497	     -0.27074476	      0.56708764	      2.00239283	      0.00000000	     -0.02265060	      0.00000000	     -1.83110445	    -16.38141663	      6.43657258	     10.54755709
      0.01250000	      3.31965881	     -8.19937811	     -4.73167663	     -0.90185411	      0.98945581	      0.30909185	    -29.42679166	     10.00465083	      1.41707492	     -2.73398645	      7.32448413	      0.02513824	      4.64838405	     24.63554494	     -9.00046677	      9.00830672	     -3.02279590	     -0.26067382	      0.50292619	      2.14969333	      0.00000000	     -0.02316808	      0.00000000	     -2.21306005	    -16.29062285	      6.45169624	     10.57988078
      0.01666667	      3.26012962	     -8.26286831	     -4.78346545	     -0.89564359	      0.98874070	      0.30875734	    -29.41177567	      9.99037255	      1.37178934	     -3.28819952	      7.13934717	      0.01633429	      4.70333515	     24.34973151	     -9.00763105	      8.94513915	     -2.91513763	     -0.23857797	      0.44098544	      2.32633566	      0.00000000	     -0.02378331	      0.00000000	     -2.59995284	    -16.20382300	      6.49352540	     10.62614402
      0.02083333	      3.19498784	     -8.34824093	     -4.96671059	     -0.88926693	      0.98809471	      0.30858856	    -29.32406755	      9.92706436	      1.23173477	     -3.98522315	      6.92548649	      0.05275681	      4.86798779	     23.99029921	     -9.09260475	      8.68361309	     -2.71975139	     -0.15150378	      0.36387084	      2.56236088	      0.00000000	     -0.02454605	      0.00000000	     -2.95037563	    -16.13038431	      6.54379830	     10.76243800
      0.02500000	      3.12617677	     -8.35299680	     -4.94909126	     -0.88279653	      0.98739466	      0.30819066	    -29.33580455	      9.89150394	      1.32740733	     -4.47017171	      6.77081889	      0.09849313	      4.93925386	     23.73554487	     -9.00985170	      8.71673864	     -2.67445466	     -0.15376622	      0.31085277	      2.77867582	      0.00000000	     -0.02512046	      0.00000000	     -3.27120469	    -16.01466487	      6.51151097	     10.80960990
      0.02916667	      3.05662950	     -8.39427923	     -5.09774856	     -0.87619127	      0.98679632	      0.30795343	    -29.22504176	      9.79268782	      1.22714137	     -5.19950816	      6.48680822	      0.12376209	      5.11931052	     23.39703581	     -9.03292205	      8.50349374	     -2.55375925	     -0.11974301	      0.24126806	      3.04355337	      0.00000000	     -0.02591070	      0.00000000	     -3.63498465	    -15.91059223	      6.52068272	     10.92286222
      0.03333333	      2.98820659	     -8.40203982	     -5.12518655	     -0.86961266	      0.98619055	      0.30761434	    -29.16686314	      9.73156319	      1.25981595	     -5.79975182	      6.23699358	      0.14247390	      5.22485332	     23.12692112	     -8.97291187	      8.46390184	     -2.52260372	     -0.10189980	      0.18225855	      3.27785223	      0.00000000	     -0.02664017	      0.00000000	     -4.01608335	    -15.81101445	      6.48125394	     10.96958583
      0.03750000	      2.91866185	     -8.41195279	     -5.07166092	     -0.86263802	      0.98551612	      0.30718995	    -29.23685573	      9.71294911	      1.35986522	     -6.17440199	      6.11919685	      0.15316274	      5.24494904	     22.86966100	     -8.87557676	      8.54282554	     -2.56437183	     -0.12735547	      0.12139192	      3.40290967	      0.00000000	     -0.02751532	      0.00000000	     -4.13009975	    -15.61194458	      6.48101696	     10.97510439
      0.04166667	      2.85460687	     -8.42234412	     -5.19882707	     -0.85626130	      0.98514527	      0.30690865	    -28.95509938	      9.59143618	      1.24277477	     -7.17102819	      5.57945582	      0.06733031	      5.33555888	     22.57410986	     -8.85867536	      8.40872494	     -2.50870751	     -0.09265697	      0.07040320	      3.67836352	      0.00000000	     -0.02822112	      0.00000000	     -4.70917588	    -15.60172613	      6.43531165	     10.98766126
      0.04583333	      2.64057417	     -8.20934809	     -5.52847805	     -0.84899999	      0.98472825	      0.30706563	    -28.61321881	      9.17008098	      1.16071032	     -8.01638011	      5.13851805	      0.20447160	      6.28777718	     22.27358319	     -8.71315942	      7.60083774	     -2.33795508	     -0.01526347	     -0.02338299	      4.32489249	      0.00000000	     -0.02896362	      0.00000000	     -4.91829194	    -15.23172915	      6.10760544	     11.34279966
